<svg xmlns="http://www.w3.org/2000/svg" xmlns:xlink="http://www.w3.org/1999/xlink" width="16" height="14" viewBox="0 0 16 14">
    <defs>
        <path id="b1oc3cmrva" d="M15.751 4.951h-.91V2.536c0-.569-.602-.898-1.17-1.03 0 0-2.131-.516-4.622-.516-2.49 0-4.72.516-4.72.516-.62.157-1.17.461-1.17 1.03v2.415h-.91c-.31 0-.562.222-.562.495v1.98c1.088 0 1.123-1.485 1.123-1.485h.35v6.394c0 .57.523 1.031 1.168 1.031h.183v.485c0 .273.251.495.561.495.31 0 .561-.222.561-.495v-.485h6.734v.495c0 .273.251.495.56.495.31 0 .562-.222.562-.495v-.495h.183c.645 0 1.168-.461 1.168-1.03V5.94h.35s.035 1.485 1.123 1.485v-1.98c0-.273-.252-.495-.562-.495zm-2.033 7.425v.022l-9.436-.022v-2.97h9.436v2.97zm0-3.96H4.282v-2.97h9.436v2.97zM6.475 9.901c.465 0 .842.332.842.742s-.377.743-.842.743c-.465 0-.842-.332-.842-.743 0-.41.377-.742.842-.742zm5.05 0c.465 0 .842.332.842.742s-.377.743-.842.743c-.465 0-.842-.332-.842-.743 0-.41.377-.742.842-.742zm-2.476-7.92c2.298 0 4.308.475 4.337.482.167.04.28.095.332.13v1.863H4.282V2.59c.053-.032.16-.082.329-.126.021-.005 2.132-.483 4.438-.483zm2.195.742H6.756v.99h4.488v-.99z"/>
    </defs>
    <g fill="none" fill-rule="evenodd">
        <g>
            <g>
                <g>
                    <g>
                        <g>
                            <g transform="translate(-393 -298) translate(192 276) translate(18 18) translate(69) translate(102) translate(11 3.52)">
                                <use fill="#000" fill-rule="nonzero" xlink:href="#b1oc3cmrva"/>
                            </g>
                        </g>
                    </g>
                </g>
            </g>
        </g>
    </g>
</svg>
