<svg xmlns="http://www.w3.org/2000/svg" xmlns:xlink="http://www.w3.org/1999/xlink" width="16" height="17" viewBox="0 0 16 17">
    <defs>
        <path id="mds4tnilua" d="M3.5 2.938v8.437c0 .621.507 1.125 1.132 1.125h6.737c.625 0 1.131-.504 1.131-1.125V2.937c0-.62-.506-1.124-1.13-1.124H4.631c-.625 0-1.132.504-1.132 1.125zm7.875 0l-.006 8.437H4.625l.007-8.438h6.743zM10.25 4.062h-4.5v3.375h4.5V4.063zm-3.938 9L4.625 14.75h6.75l-1.688-1.688h1.688L15.313 17h-1.688L12.5 15.875h-9L2.375 17H.687l3.938-3.938h1.688zm0-3.937c.317 0 .563.255.563.563 0 .307-.246.562-.563.562-.316 0-.562-.255-.562-.563 0-.307.246-.562.563-.562zm3.375 0c.317 0 .563.255.563.563 0 .307-.246.562-.563.562-.316 0-.562-.255-.562-.563 0-.307.246-.562.563-.562zm-.562-3.938v1.125h-2.25V5.188h2.25zM6.312.125c.317 0 .563.255.563.563 0 .307-.246.562-.563.562-.316 0-.562-.255-.562-.563 0-.307.246-.562.563-.562zm3.375 0c.317 0 .563.255.563.563 0 .307-.246.562-.563.562-.316 0-.562-.255-.562-.563 0-.307.246-.562.563-.562z"/>
    </defs>
    <g fill="none" fill-rule="evenodd">
        <g>
            <g>
                <g>
                    <g>
                        <g>
                            <g transform="translate(-288 -296) translate(192 276) translate(18 18) translate(69) translate(8 1) translate(1 1)">
                                <use fill="#222" fill-rule="nonzero" xlink:href="#mds4tnilua"/>
                            </g>
                        </g>
                    </g>
                </g>
            </g>
        </g>
    </g>
</svg>
